# xmcd CD database file
#
# Track frame offsets:
#	150
#	19502
#	39425
#	59022
#	78437
#	98847
#	117395
#	133477
#	150705
#	167440
#	180302
#	197165
#	212660
#	226662
#	238917
#	258872
#
# Disc length: 3742 seconds
#
# Revision: 0
# Processed by: cddbd v1.4PL0 Copyright (c) Steve Scherf et al.
# Submitted via: CDex 1.50beta10
#
DISCID=d10e9c10
DTITLE=Compay Segundo - Antologia de Francisco Repilado
DYEAR=1900
DGENRE=Salsa
TTITLE0=Yo vengo aqui
TTITLE1=Macusa
TTITLE2=Sabroso
TTITLE3=Ahora me da pena
TTITLE4=Chicharrones
TTITLE5=Saludo Compay
TTITLE6=Mi calderito
TTITLE7=quien te bautizo (vicente)
TTITLE8=pasaje para holguin
TTITLE9=mi linda guajira
TTITLE10=Silencio
TTITLE11=Anita
TTITLE12=Idilio
TTITLE13=Como la avellaneda
TTITLE14=Se seco el arroyito
TTITLE15=A tus pies
EXTD=
EXTT0=
EXTT1=
EXTT2=
EXTT3=
EXTT4=
EXTT5=
EXTT6=
EXTT7=
EXTT8=
EXTT9=
EXTT10=
EXTT11=
EXTT12=
EXTT13=
EXTT14=
EXTT15=
PLAYORDER=
